<?xml version="1.0" standalone="no"?>
<!DOCTYPE svg PUBLIC "-//W3C//DTD SVG 20010904//EN"
 "http://www.w3.org/TR/2001/REC-SVG-20010904/DTD/svg10.dtd">
<svg version="1.0" xmlns="http://www.w3.org/2000/svg"
 width="512.000000pt" height="512.000000pt" viewBox="0 0 512.000000 512.000000"
 preserveAspectRatio="xMidYMid meet">

<g transform="translate(0.000000,512.000000) scale(0.100000,-0.100000)"
fill="#000000" stroke="none">
<path d="M1235 5071 c-11 -5 -31 -21 -45 -36 l-25 -27 1 -266 c1 -257 2 -271
27 -367 32 -119 116 -294 186 -386 105 -138 242 -248 407 -326 152 -72 257
-94 472 -100 l182 -6 0 -478 0 -478 -622 -3 -623 -3 -61 -28 c-77 -36 -145
-104 -181 -182 l-28 -60 0 -245 c0 -244 0 -245 27 -302 14 -31 45 -77 68 -102
44 -48 147 -106 186 -106 16 0 25 -7 29 -22 2 -13 47 -295 99 -628 53 -333
103 -626 112 -652 18 -53 89 -138 144 -173 88 -56 74 -55 970 -55 725 0 833 2
880 16 64 19 113 49 162 100 75 78 79 97 183 759 52 336 98 620 100 633 4 15
13 22 29 22 39 0 142 58 186 106 23 25 54 71 68 102 27 57 27 58 27 302 l0
245 -28 60 c-47 100 -126 169 -227 199 -46 14 -136 16 -657 16 l-603 0 0 125
0 125 148 0 c83 0 188 7 242 15 516 83 944 446 1109 942 56 167 63 219 68 498
7 374 19 361 -321 352 -345 -9 -530 -50 -761 -170 -156 -81 -331 -232 -435
-376 -52 -71 -46 -76 -70 74 -42 272 -218 548 -451 706 -91 61 -235 127 -346
156 -91 24 -117 26 -353 29 -140 2 -264 0 -275 -5z m495 -242 c93 -15 204 -54
290 -102 102 -57 250 -205 307 -307 69 -123 113 -280 113 -405 l0 -50 -148
148 c-133 133 -153 149 -189 154 -77 10 -140 -53 -130 -130 5 -36 21 -56 154
-189 l148 -148 -50 0 c-125 0 -282 44 -405 113 -102 57 -250 206 -307 307 -83
148 -113 278 -113 488 l0 132 133 0 c72 0 161 -5 197 -11z m2280 -548 c0 -80
-7 -176 -15 -227 -85 -488 -461 -864 -949 -949 -49 -8 -111 -15 -139 -15 l-51
0 186 188 c131 132 187 195 190 216 15 78 -41 146 -120 146 l-46 0 -193 -192
-193 -192 0 44 c0 130 56 342 126 482 135 269 382 481 673 578 121 41 237 58
399 59 l132 1 0 -139z m-88 -1959 l33 -32 0 -210 0 -210 -33 -32 -32 -33
-1330 0 -1330 0 -32 33 -33 32 0 209 0 209 25 27 c14 15 34 31 45 36 11 4 613
7 1337 6 l1318 -2 32 -33z m-282 -776 c0 -18 -179 -1152 -186 -1182 -3 -12
-19 -35 -35 -50 l-30 -29 -817 -3 c-603 -2 -824 1 -845 9 -39 17 -65 73 -80
179 l-14 90 574 0 c630 0 616 -1 648 60 31 60 10 137 -45 165 -25 13 -112 15
-622 15 l-593 0 -58 373 c-32 204 -58 375 -57 380 0 4 486 7 1080 7 931 0
1080 -2 1080 -14z"/>
<path d="M3104 790 c-28 -11 -61 -54 -69 -89 -14 -65 51 -141 120 -141 60 0
114 55 115 118 1 86 -86 145 -166 112z"/>
</g>
</svg>
